PathFileType	4	(X/Y/Z)	E:\Qualisys_Data\Carbon_Farble_Plate\Data\Amateur_Runner\S14\T1\S14T1V13_c3d.trc
DataRate	CameraRate	NumFrames	NumMarkers	Units	OrigDataRate	OrigDataStartFrame	OrigNumFrames
200.000000	200.000000	4	39	mm	200.000000	169	339
Frame#	Time	LSHO			RSHO			LICST			RICST			LASIS			LHEEL			RASIS			LTROC			RTROC			SACR			LTH1			LSK4			LTH2			LTH3			RHM5			LSK2			LTH4			RTH1			LTOE			RTH2			RTH3			RTH4			LLEP			RLEP			LSK1			LSK3			RSK1			LHM5			RSK2			LFT1			RSK3			RSK4			LLME			RLME			RTOE			RHEEL			RFT1			RFT2			LFT2			
		X1	Y1	Z1	X2	Y2	Z2	X3	Y3	Z3	X4	Y4	Z4	X5	Y5	Z5	X6	Y6	Z6	X7	Y7	Z7	X8	Y8	Z8	X9	Y9	Z9	X10	Y10	Z10	X11	Y11	Z11	X12	Y12	Z12	X13	Y13	Z13	X14	Y14	Z14	X15	Y15	Z15	X16	Y16	Z16	X17	Y17	Z17	X18	Y18	Z18	X19	Y19	Z19	X20	Y20	Z20	X21	Y21	Z21	X22	Y22	Z22	X23	Y23	Z23	X24	Y24	Z24	X25	Y25	Z25	X26	Y26	Z26	X27	Y27	Z27	X28	Y28	Z28	X29	Y29	Z29	X30	Y30	Z30	X31	Y31	Z31	X32	Y32	Z32	X33	Y33	Z33	X34	Y34	Z34	X35	Y35	Z35	X36	Y36	Z36	X37	Y37	Z37	X38	Y38	Z38	X39	Y39	Z39	

170	0.845	117.3846054077148	1471.612426757812	-550.577392578125	37.43339157104492	1476.194213867188	-266.7298889160156	45.65102386474609	1020.89697265625	-535.5830688476562	65.24645233154297	1028.288330078125	-263.5440368652344	84.33547973632812	968.9671020507812	-511.701904296875	-492.4743347167969	400.4502563476562	-409.8177490234375	91.66220855712892	984.9025268554688	-283.0414428710938	-75.54912567138672	912.1994018554688	-549.3604125976562	-42.71090316772461	928.325439453125	-225.5585327148438	-81.7447509765625	1030.68798828125	-400.6985473632812	-51.60258865356445	680.9576416015625	-555.8321533203125	-335.6111145019531	476.211669921875	-497.9966735839844	-124.9998016357422	700.6909790039062	-529.3036499023438	-68.20527648925781	583.7137451171875	-538.0966186523438	367.6244201660156	134.3086242675781	-236.4782562255859	-251.175048828125	524.4453125	-520.4050903320312	-144.2227020263672	604.7971801757812	-514.3889770507812	151.4611511230469	716.1565551757812	-223.3423309326172	-477.772705078125	145.5110321044922	-465.1520080566406	74.73434448242188	692.741455078125	-212.9817504882812	181.3493499755859	625.6389770507812	-256.4111328125	103.1578369140625	596.4666137695312	-236.6984710693359	-127.1206665039062	531.7817993164062	-528.7997436523438	149.529541015625	538.3162231445312	-248.3555908203125	-211.5052642822266	452.5274963378906	-528.073974609375	-300.0920715332031	404.6077880859375	-510.11865234375	201.8916625976562	427.1677856445312	-243.3608856201172	-509.9063415527344	216.2468414306641	-511.4806213378906	119.0066452026367	405.1299438476562	-246.9366912841797	-509.5214233398438	378.9123840332031	-379.1805114746094	222.8402252197266	325.9407043457031	-254.864013671875	144.8357696533203	312.2098083496094	-258.4161682128906	-470.2572021484375	359.0540161132812	-477.773681640625	226.5941314697266	144.1705932617188	-275.6181030273438	433.7428588867188	179.3279724121094	-289.649169921875	190.1302642822266	96.88050842285156	-333.6737976074219	218.2028503417969	78.75032043457031	-363.296875	199.0043792724609	73.12248229980469	-307.88134765625	-523.9500732421875	395.4043579101562	-430.6629943847656
171	0.85	132.9518280029297	1468.91064453125	-549.7035522460938	53.0977783203125	1473.1572265625	-265.9535522460938	61.40379333496094	1018.066345214844	-535.1787719726562	80.7449722290039	1025.634765625	-262.5672302246094	99.85683441162108	966.5728149414062	-511.18505859375	-474.7984313964844	405.7892150878906	-409.6661071777344	107.2183074951172	982.505859375	-282.2612915039062	-59.08876037597656	908.677001953125	-548.9404907226562	-26.82261657714844	925.0170288085938	-225.1696014404297	-65.90599822998047	1027.247680664062	-400.1259460449219	-32.15719604492188	677.5299072265625	-556.243896484375	-315.8960876464844	476.7910766601562	-498.5068969726562	-106.2989501953125	696.4426879882812	-529.427734375	-48.37950897216797	579.9244384765625	-538.2734375	382.6390075683594	131.6318511962891	-237.1525421142578	-230.3680725097656	522.9839477539062	-521.38134765625	-124.1322021484375	600.461669921875	-514.958251953125	167.0889282226562	713.959716796875	-222.4403381347656	-464.800537109375	150.4911041259766	-464.1510620117188	90.34149932861328	690.318603515625	-212.9302368164062	197.3936767578125	623.3880004882812	-255.8922882080078	118.6463317871094	594.0350341796875	-236.8656616210938	-106.5503005981445	527.9232788085938	-529.7355346679688	165.2635955810547	536.081787109375	-248.1166687011719	-192.3131561279297	449.7492370605469	-528.0045166015625	-281.9681396484375	404.38916015625	-510.0572509765625	217.3579406738281	424.3670349121094	-243.2828063964844	-495.8252563476562	221.9990692138672	-510.8777465820312	134.5398254394531	402.3381652832031	-246.4729919433594	-492.3830261230469	384.7344055175781	-379.058349609375	238.0704040527344	323.2279663085938	-254.9195251464844	160.0279235839844	309.2747192382812	-257.7733154296875	-452.8330993652344	363.7103271484375	-477.0519104003906	241.3783264160156	141.2075958251953	-275.2749938964844	448.3251342773438	176.9202880859375	-290.5867309570312	204.5632019042969	93.91881561279295	-333.6316833496094	232.5492095947266	75.70849609375	-363.1860961914062	213.6040802001953	70.066650390625	-307.9462890625	-505.9087524414062	401.7325134277344	-430.712158203125
172	0.855	148.2895050048828	1466.070922851562	-548.8930053710938	68.9126968383789	1469.911865234375	-264.8184814453125	77.51624298095703	1015.216796875	-534.955078125	96.17027282714844	1022.824645996094	-261.7553405761719	116.4251708984375	963.8292236328124	-510.7039489746094	-456.7551574707031	411.2356262207031	-409.0232849121094	123.0648422241211	979.9119262695312	-281.6029663085938	-42.52687454223633	904.889404296875	-548.9429931640625	-11.33545684814453	921.7713012695312	-224.7212829589844	-50.19270706176758	1023.995178222656	-399.9686584472656	-12.88334083557129	673.8482666015625	-555.7568969726562	-295.5790710449219	477.1064147949219	-500.4517822265625	-87.54886627197266	691.6691284179688	-529.4514770507812	-28.1594181060791	575.8543701171875	-538.749267578125	396.7868347167969	128.2767028808594	-237.9791412353516	-208.9194183349609	521.0924072265625	-522.4768676757812	-104.2108383178711	595.8671264648438	-515.0242919921875	182.8826446533203	711.4598999023438	-221.5587005615234	-451.2064819335938	155.7360229492188	-462.8352966308594	106.4882965087891	687.8847045898438	-213.0251007080078	213.2664031982422	621.2239379882812	-255.7245788574219	134.7287445068359	591.9827270507812	-237.049072265625	-85.69528198242188	523.79345703125	-530.187744140625	181.0933990478516	532.9470825195312	-248.0472564697266	-172.7381439208984	447.071533203125	-528.13427734375	-263.3270263671875	403.8835144042969	-509.3283386230469	233.0617370605469	421.2522583007812	-243.2101287841797	-480.3316040039062	227.3813781738281	-509.8129272460938	149.9433746337891	399.5792846679688	-245.6942749023438	-474.4364929199219	390.210693359375	-379.4219360351562	252.6494598388672	319.6183166503906	-254.8223724365234	174.6693878173828	306.60693359375	-257.0701293945312	-435.2863464355469	368.268798828125	-476.9437866210938	255.4097290039062	138.2489318847656	-275.2259826660156	462.1209106445312	173.5433502197266	-292.1750183105469	218.0312957763672	90.54641723632812	-333.4540710449219	245.8847045898438	72.44710540771484	-362.960693359375	226.8890228271484	66.69595336914062	-307.6411437988281	-487.4729919433594	407.2438354492188	-430.3300170898438
173	0.86	163.9617614746094	1462.893676757812	-548.1411743164062	84.69591522216797	1466.347534179688	-263.7630310058594	93.29332733154295	1011.966735839844	-534.6091918945312	111.5923690795898	1019.571594238281	-261.4857482910156	132.2745208740234	960.9843139648438	-510.0548095703125	-438.2890625	416.1980590820312	-408.8898315429688	138.9416351318359	977.1478881835938	-280.7986450195312	-25.8748893737793	901.2982788085938	-548.9772338867188	3.69007396697998	918.3553466796876	-224.7852630615234	-34.97637176513672	1019.644653320312	-398.9387512207031	6.107143878936768	669.8226318359375	-555.5848999023438	-275.2361145019531	477.2381896972656	-501.1103820800781	-68.64327239990234	686.8597412109375	-529.4837646484375	-7.622164726257324	572.0971069335938	-538.9351196289062	410.4346923828125	123.962890625	-239.6062622070312	-187.6933288574219	518.7730712890625	-523.5060424804688	-84.14520263671875	590.6097412109375	-515.4644165039062	199.0749816894531	709.1803588867188	-220.6224822998047	-436.8755187988281	160.4152374267578	-461.9598693847656	122.4801788330078	685.3226928710938	-213.1255950927734	229.654052734375	618.60205078125	-255.5570220947266	151.0295867919922	589.2520141601562	-237.2045593261719	-64.42694091796875	519.15283203125	-531.0671997070312	197.0567626953125	530.3016967773438	-247.7090301513672	-152.8937377929688	444.1321716308594	-528.7047119140625	-244.714111328125	402.8912658691406	-509.1456298828125	248.15771484375	418.0370178222656	-242.9707183837891	-465.1494750976562	232.704833984375	-508.7779846191406	165.0900726318359	396.9954223632812	-245.3663940429688	-456.1505737304688	396.3720092773438	-378.2906188964844	267.24951171875	316.440673828125	-254.5742340087891	188.8636169433594	303.5307312011719	-257.1275939941406	-417.4288330078125	372.5339050292969	-476.4703369140625	268.2138977050781	134.6247253417969	-275.0336608886719	475.1964416503906	169.5037384033203	-294.0857849121094	230.38427734375	87.12545776367188	-332.898193359375	257.61767578125	69.13811492919922	-362.9266967773438	239.9399108886719	63.20166015625	-307.1340637207031	-468.5996398925781	413.37353515625	-430.1890869140625
